<?xml version="1.0" standalone="no"?>
<!DOCTYPE svg PUBLIC "-//W3C//DTD SVG 20010904//EN"
 "http://www.w3.org/TR/2001/REC-SVG-20010904/DTD/svg10.dtd">
<svg version="1.0" xmlns="http://www.w3.org/2000/svg"
 width="870.000000pt" height="863.000000pt" viewBox="0 0 870.000000 863.000000"
 preserveAspectRatio="xMidYMid meet">

<g transform="translate(0.000000,863.000000) scale(0.100000,-0.100000)"
fill="#000000" stroke="none">
<path d="M3975 8589 c-888 -83 -1699 -417 -2375 -980 -781 -650 -1313 -1568
-1484 -2564 -46 -268 -59 -437 -59 -740 0 -384 34 -678 119 -1025 301 -1230
1139 -2270 2279 -2830 574 -282 1139 -420 1786 -437 1659 -44 3181 862 3941
2347 234 456 385 970 444 1512 24 211 24 657 1 866 -114 1020 -532 1900 -1241
2608 -334 333 -669 577 -1081 789 -478 245 -1008 399 -1549 450 -172 16 -624
19 -781 4z"/>
</g>
</svg>
